<mxfile host="65bd71144e">
    <diagram id="illIvgrDb75X_dPS2soe" name="Page-1">
        <mxGraphModel dx="957" dy="697" grid="1" gridSize="10" guides="1" tooltips="1" connect="1" arrows="1" fold="1" page="1" pageScale="1" pageWidth="2336" pageHeight="1654" math="0" shadow="0">
            <root>
                <mxCell id="0"/>
                <mxCell id="1" parent="0"/>
                <mxCell id="3" value="eCommerce" style="shape=umlFrame;whiteSpace=wrap;html=1;width=120;height=30;boundedLbl=1;verticalAlign=middle;align=left;spacingLeft=5;" parent="1" vertex="1">
                    <mxGeometry x="920" y="560" width="480" height="760" as="geometry"/>
                </mxCell>
                <mxCell id="453" style="edgeStyle=none;html=1;exitX=0.5;exitY=0.5;exitDx=0;exitDy=0;exitPerimeter=0;entryX=0.5;entryY=0.5;entryDx=0;entryDy=0;entryPerimeter=0;" edge="1" parent="1" source="425" target="427">
                    <mxGeometry relative="1" as="geometry"/>
                </mxCell>
                <mxCell id="425" value="Customers" style="shape=umlActor;verticalLabelPosition=bottom;verticalAlign=top;html=1;" vertex="1" parent="1">
                    <mxGeometry x="840" y="600" width="30" height="60" as="geometry"/>
                </mxCell>
                <mxCell id="427" value="Users" style="shape=umlActor;verticalLabelPosition=bottom;verticalAlign=top;html=1;" vertex="1" parent="1">
                    <mxGeometry x="720" y="800" width="30" height="60" as="geometry"/>
                </mxCell>
                <mxCell id="454" style="edgeStyle=none;html=1;exitX=0.5;exitY=0.5;exitDx=0;exitDy=0;exitPerimeter=0;entryX=0.5;entryY=0.5;entryDx=0;entryDy=0;entryPerimeter=0;" edge="1" parent="1" source="428" target="427">
                    <mxGeometry relative="1" as="geometry">
                        <mxPoint x="730" y="830" as="targetPoint"/>
                    </mxGeometry>
                </mxCell>
                <mxCell id="428" value="Admin" style="shape=umlActor;verticalLabelPosition=bottom;verticalAlign=top;html=1;" vertex="1" parent="1">
                    <mxGeometry x="840" y="720" width="30" height="60" as="geometry"/>
                </mxCell>
                <mxCell id="455" style="edgeStyle=none;html=1;exitX=0;exitY=0.3333333333333333;exitDx=0;exitDy=0;exitPerimeter=0;entryX=0.5;entryY=0.5;entryDx=0;entryDy=0;entryPerimeter=0;" edge="1" parent="1" source="433" target="427">
                    <mxGeometry relative="1" as="geometry">
                        <mxPoint x="730" y="830" as="targetPoint"/>
                    </mxGeometry>
                </mxCell>
                <mxCell id="433" value="Master Admin" style="shape=umlActor;verticalLabelPosition=bottom;verticalAlign=top;html=1;" vertex="1" parent="1">
                    <mxGeometry x="840" y="840" width="30" height="60" as="geometry"/>
                </mxCell>
                <mxCell id="456" style="edgeStyle=none;html=1;exitX=0.5;exitY=0.5;exitDx=0;exitDy=0;exitPerimeter=0;entryX=0.5;entryY=0.5;entryDx=0;entryDy=0;entryPerimeter=0;" edge="1" parent="1" source="434" target="427">
                    <mxGeometry relative="1" as="geometry"/>
                </mxCell>
                <mxCell id="434" value="Customer Support" style="shape=umlActor;verticalLabelPosition=bottom;verticalAlign=top;html=1;" vertex="1" parent="1">
                    <mxGeometry x="840" y="960" width="30" height="60" as="geometry"/>
                </mxCell>
                <mxCell id="460" style="edgeStyle=none;html=1;exitX=0.5;exitY=0.5;exitDx=0;exitDy=0;exitPerimeter=0;entryX=0.5;entryY=0.5;entryDx=0;entryDy=0;entryPerimeter=0;" edge="1" parent="1" source="437" target="427">
                    <mxGeometry relative="1" as="geometry">
                        <mxPoint x="730" y="840" as="targetPoint"/>
                    </mxGeometry>
                </mxCell>
                <mxCell id="437" value="Financial" style="shape=umlActor;verticalLabelPosition=bottom;verticalAlign=top;html=1;" vertex="1" parent="1">
                    <mxGeometry x="600" y="600" width="30" height="60" as="geometry"/>
                </mxCell>
                <mxCell id="459" style="edgeStyle=none;html=1;exitX=0.5;exitY=0.5;exitDx=0;exitDy=0;exitPerimeter=0;entryX=0.5;entryY=0.5;entryDx=0;entryDy=0;entryPerimeter=0;" edge="1" parent="1" source="438" target="427">
                    <mxGeometry relative="1" as="geometry">
                        <mxPoint x="730" y="840" as="targetPoint"/>
                    </mxGeometry>
                </mxCell>
                <mxCell id="438" value="Marketing" style="shape=umlActor;verticalLabelPosition=bottom;verticalAlign=top;html=1;" vertex="1" parent="1">
                    <mxGeometry x="600" y="720" width="30" height="60" as="geometry"/>
                </mxCell>
                <mxCell id="458" style="edgeStyle=none;html=1;exitX=0.5;exitY=0.5;exitDx=0;exitDy=0;exitPerimeter=0;" edge="1" parent="1" source="439">
                    <mxGeometry relative="1" as="geometry">
                        <mxPoint x="735" y="830" as="targetPoint"/>
                    </mxGeometry>
                </mxCell>
                <mxCell id="439" value="Operations" style="shape=umlActor;verticalLabelPosition=bottom;verticalAlign=top;html=1;" vertex="1" parent="1">
                    <mxGeometry x="600" y="840" width="30" height="60" as="geometry"/>
                </mxCell>
                <mxCell id="457" style="edgeStyle=none;html=1;exitX=0.5;exitY=0.5;exitDx=0;exitDy=0;exitPerimeter=0;entryX=0.5;entryY=0.5;entryDx=0;entryDy=0;entryPerimeter=0;" edge="1" parent="1" source="440" target="427">
                    <mxGeometry relative="1" as="geometry">
                        <mxPoint x="730" y="840" as="targetPoint"/>
                    </mxGeometry>
                </mxCell>
                <mxCell id="440" value="Products" style="shape=umlActor;verticalLabelPosition=bottom;verticalAlign=top;html=1;" vertex="1" parent="1">
                    <mxGeometry x="600" y="960" width="30" height="60" as="geometry"/>
                </mxCell>
                <mxCell id="441" value="Manages the product catalog, including adding, deleting, and updating products, descriptions, prices, and inventory." style="ellipse;whiteSpace=wrap;html=1;align=center;verticalAlign=middle;labelBorderColor=none;labelBackgroundColor=none;" vertex="1" parent="1">
                    <mxGeometry x="960" y="830" width="390" height="70" as="geometry"/>
                </mxCell>
                <mxCell id="442" value="Has full access to all platform functions." style="ellipse;whiteSpace=wrap;html=1;labelBackgroundColor=none;labelBorderColor=none;" vertex="1" parent="1">
                    <mxGeometry x="960" y="600" width="400" height="50" as="geometry"/>
                </mxCell>
                <mxCell id="444" value="Can create, modify and delete users, products, categories, payment settings, logistics, etc." style="ellipse;whiteSpace=wrap;html=1;align=center;verticalAlign=middle;labelBorderColor=none;labelBackgroundColor=none;" vertex="1" parent="1">
                    <mxGeometry x="960" y="670" width="390" height="70" as="geometry"/>
                </mxCell>
                <mxCell id="445" value="Makes purchases on the platform, accesses order history, tracking shipments, and makes product reviews." style="ellipse;whiteSpace=wrap;html=1;align=center;verticalAlign=middle;labelBorderColor=none;labelBackgroundColor=none;" vertex="1" parent="1">
                    <mxGeometry x="960" y="750" width="390" height="70" as="geometry"/>
                </mxCell>
                <mxCell id="446" value="Responds to customer queries, resolves order issues, tracks deliveries, and handles returns and exchanges." style="ellipse;whiteSpace=wrap;html=1;align=center;verticalAlign=middle;labelBorderColor=none;labelBackgroundColor=none;" vertex="1" parent="1">
                    <mxGeometry x="960" y="910" width="390" height="70" as="geometry"/>
                </mxCell>
                <mxCell id="447" value="Takes care of finances, monitoring billing, payments, refunds, and financial reconciliations." style="ellipse;whiteSpace=wrap;html=1;align=center;verticalAlign=middle;labelBorderColor=none;labelBackgroundColor=none;" vertex="1" parent="1">
                    <mxGeometry x="960" y="990" width="390" height="70" as="geometry"/>
                </mxCell>
                <mxCell id="448" value="Develops and implements digital marketing campaigns, handles promotions and discount coupons, as well as conversion reports." style="ellipse;whiteSpace=wrap;html=1;align=center;verticalAlign=middle;labelBorderColor=none;labelBackgroundColor=none;" vertex="1" parent="1">
                    <mxGeometry x="960" y="1070" width="390" height="70" as="geometry"/>
                </mxCell>
                <mxCell id="449" value="Manages orders, tracking payment, shipping, and delivery status. Can also handle refunds and returns." style="ellipse;whiteSpace=wrap;html=1;align=center;verticalAlign=middle;labelBorderColor=none;labelBackgroundColor=none;" vertex="1" parent="1">
                    <mxGeometry x="960" y="1150" width="390" height="70" as="geometry"/>
                </mxCell>
                <mxCell id="451" value="Manage logistics operations, such as order processing, integration with carriers, inventory management and fulfillment." style="ellipse;whiteSpace=wrap;html=1;align=center;verticalAlign=middle;labelBorderColor=none;labelBackgroundColor=none;" vertex="1" parent="1">
                    <mxGeometry x="960" y="1230" width="390" height="70" as="geometry"/>
                </mxCell>
            </root>
        </mxGraphModel>
    </diagram>
</mxfile>
